<?xml version="1.0" encoding="UTF-8" standalone="no"?>
<!DOCTYPE svg PUBLIC "-//W3C//DTD SVG 1.1//EN" "http://www.w3.org/Graphics/SVG/1.1/DTD/svg11.dtd"><svg width="100%"
	height="100%" viewBox="0 0 24 24" version="1.1" xmlns="http://www.w3.org/2000/svg"
	xmlns:xlink="http://www.w3.org/1999/xlink" xml:space="preserve" xmlns:serif="http://www.serif.com/"
	style="fill-rule:evenodd;clip-rule:evenodd;stroke-linejoin:round;stroke-miterlimit:2;">
	<rect id="Artboard3" x="0" y="0" width="24" height="24" style="fill:none;" />
	<clipPath id="_clip1">
		<rect x="0" y="0" width="24" height="24" />
	</clipPath>
	<g clip-path="url(#_clip1)">
		<g>
			<rect x="1" y="0" width="24" height="24" style="fill:none;" />
			<g id="kulata_white">
				<path
					d="M3.491,8c0.828,-0 1.5,0.672 1.5,1.5c-0,0.828 -0.672,1.5 -1.5,1.5c-0.828,-0 -1.5,-0.672 -1.5,-1.5c-0,-0.828 0.672,-1.5 1.5,-1.5Zm4.888,-6.862c0.733,-0.684 1.859,-1.121 3.121,-1.121c1.592,-0 2.968,0.697 3.611,1.704c0.355,-0.132 0.738,-0.204 1.139,-0.204c1.794,-0 3.25,1.452 3.25,3.241c-0,0.899 -0.367,1.712 -0.96,2.299l-2.923,-1.678c-0.663,-0.38 -1.511,-0.151 -1.891,0.512c-0.12,0.209 -0.179,0.435 -0.184,0.66c-0.073,-0.11 -0.139,-0.224 -0.199,-0.342c-0.594,0.784 -1.535,1.291 -2.593,1.291c-0.276,0 -0.545,-0.035 -0.801,-0.1c-0.502,0.668 -1.301,1.1 -2.199,1.1c-1.518,-0 -2.751,-1.232 -2.751,-2.75c0,-0.687 0.252,-1.315 0.669,-1.797c-0.108,-0.254 -0.168,-0.534 -0.168,-0.828c-0,-1.173 0.952,-2.125 2.125,-2.125c0.265,-0 0.52,0.049 0.754,0.138Zm-5.138,1.862c0.69,-0 1.25,0.56 1.25,1.25c-0,0.69 -0.56,1.25 -1.25,1.25c-0.69,-0 -1.25,-0.56 -1.25,-1.25c-0,-0.69 0.56,-1.25 1.25,-1.25Z"
					style="fill:url(#_Linear2);" />
				<g>
					<path
						d="M8.568,11.45c1.272,0.262 2.796,0.646 3.594,1.107c1.526,0.881 2.793,3.213 4.124,3.982c0.715,0.413 1.849,0.618 2.747,0.72c-0.075,0.942 -0.356,1.882 -0.86,2.754c-1.232,2.134 -3.484,3.315 -5.786,3.284c-1.086,-0.014 -2.182,-0.299 -3.189,-0.88c-3.14,-1.813 -4.217,-5.834 -2.404,-8.975c0.464,-0.803 1.073,-1.472 1.774,-1.992Zm4.182,8.55c0.414,0 0.75,0.336 0.75,0.75c0,0.414 -0.336,0.75 -0.75,0.75c-0.414,0 -0.75,-0.336 -0.75,-0.75c-0,-0.414 0.336,-0.75 0.75,-0.75Zm-2.75,-3c0.552,-0 1,0.453 1,1.011c-0,0.559 -0.448,1.012 -1,1.012c-0.552,-0 -1,-0.453 -1,-1.012c-0,-0.558 0.448,-1.011 1,-1.011Zm4.75,0.484c0.414,0 0.75,0.336 0.75,0.75c0,0.414 -0.336,0.75 -0.75,0.75c-0.414,0 -0.75,-0.336 -0.75,-0.75c-0,-0.414 0.336,-0.75 0.75,-0.75Zm-4.75,0c0.288,0 0.521,0.237 0.521,0.527c0,0.291 -0.233,0.528 -0.521,0.528c-0.288,-0 -0.521,-0.237 -0.521,-0.528c-0,-0.29 0.233,-0.527 0.521,-0.527Zm-1,-3.495c0.552,-0 1,0.453 1,1.011c-0,0.558 -0.448,1.011 -1,1.011c-0.552,0 -1,-0.453 -1,-1.011c-0,-0.558 0.448,-1.011 1,-1.011Zm4,1.011c0.276,-0 0.5,0.224 0.5,0.5c-0,0.276 -0.224,0.5 -0.5,0.5c-0.276,-0 -0.5,-0.224 -0.5,-0.5c-0,-0.276 0.224,-0.5 0.5,-0.5Zm-0,0.239c0.144,0 0.261,0.117 0.261,0.261c-0,0.144 -0.117,0.261 -0.261,0.261c-0.144,-0 -0.261,-0.117 -0.261,-0.261c0,-0.144 0.117,-0.261 0.261,-0.261Zm-4,-0.766c0.288,-0 0.521,0.236 0.521,0.527c0,0.291 -0.233,0.527 -0.521,0.527c-0.288,0 -0.521,-0.236 -0.521,-0.527c-0,-0.291 0.233,-0.527 0.521,-0.527Z"
						style="fill:url(#_Linear3);" />
					<path
						d="M12.612,9.517l0.919,-1.592c-0.602,-0.613 -0.75,-1.576 -0.299,-2.356c0.541,-0.937 1.742,-1.259 2.679,-0.718c0,0 5.135,2.964 5.135,2.964c0.937,0.542 1.259,1.742 0.718,2.68c-0.451,0.78 -1.358,1.134 -2.19,0.919l-0.997,1.727c1.315,2.32 1.311,5.279 -0.267,7.643c-2.221,3.328 -6.727,4.227 -10.055,2.005c-3.328,-2.221 -4.227,-6.727 -2.005,-10.055c1.461,-2.189 3.91,-3.327 6.362,-3.217Zm5.13,2.539l0.7,-1.213l-1.292,-0.747c-0.302,-0.174 -0.406,-0.561 -0.232,-0.864c0.175,-0.302 0.562,-0.406 0.865,-0.232c-0,0 1.934,1.117 1.934,1.117c0.332,0.192 0.759,0.078 0.951,-0.255c0.192,-0.332 0.078,-0.759 -0.255,-0.951c-0,0 -5.134,-2.964 -5.134,-2.964c-0.333,-0.192 -0.759,-0.078 -0.951,0.255c-0.192,0.333 -0.078,0.759 0.255,0.951c-0,-0 0.723,0.418 0.723,0.418c0.303,0.174 0.407,0.562 0.232,0.864c-0.175,0.303 -0.562,0.406 -0.864,0.232l-0.082,-0.048l-0.656,1.136c0.123,0.083 0.22,0.203 0.277,0.345c0.09,0.228 0.062,0.486 -0.074,0.69c0.014,0.01 0.014,0.011 0.013,0.012c-0.172,0.257 -0.484,0.383 -0.786,0.318c-2.202,-0.431 -4.546,0.465 -5.869,2.447c-1.761,2.639 -1.049,6.213 1.591,7.975c2.639,1.761 6.213,1.049 7.974,-1.591c1.414,-2.118 1.235,-4.838 -0.256,-6.74c-0.211,-0.255 -0.229,-0.619 -0.045,-0.894c-0.009,-0.006 -0.009,-0.006 -0.009,-0.006c0.133,-0.2 0.352,-0.326 0.592,-0.34c0.14,-0.008 0.277,0.022 0.398,0.085Z"
						style="fill:url(#_Linear4);" />
				</g>
			</g>
		</g>
	</g>
	<defs>
		<linearGradient id="_Linear2" x1="0" y1="0" x2="1" y2="0" gradientUnits="userSpaceOnUse"
			gradientTransform="matrix(17.5093,0,0,10.9834,1.99066,5.50829)">
			<stop offset="0" style="stop-color:#491ae6;stop-opacity:1" />
			<stop offset="1" style="stop-color:#e40df2;stop-opacity:1" />
		</linearGradient>
		<linearGradient id="_Linear3" x1="0" y1="0" x2="1" y2="0" gradientUnits="userSpaceOnUse"
			gradientTransform="matrix(14.0867,10,-10,14.0867,5.91328,12)">
			<stop offset="0" style="stop-color:#43f20d;stop-opacity:1" />
			<stop offset="1" style="stop-color:#0dcaf2;stop-opacity:1" />
		</linearGradient>
		<linearGradient id="_Linear4" x1="0" y1="0" x2="1" y2="0" gradientUnits="userSpaceOnUse"
			gradientTransform="matrix(0.0284347,18.1547,-20.744,0.0324902,13.5,5.85393)">
			<stop offset="0" style="stop-color:#f16bff;stop-opacity:1" />
			<stop offset="1" style="stop-color:#0591fd;stop-opacity:1" />
		</linearGradient>
	</defs>
</svg>